<?xml version="1.0" encoding="UTF-8" standalone="no"?>
<!DOCTYPE svg PUBLIC "-//W3C//DTD SVG 1.1//EN" "http://www.w3.org/Graphics/SVG/1.1/DTD/svg11.dtd">
<svg xmlns="http://www.w3.org/2000/svg" version="1.1" viewBox="0.00 0.00 1024.00 1024.00">
<g stroke-width="2.00" fill="none" stroke-linecap="butt">
<path stroke="#7e807f" vector-effect="non-scaling-stroke" d="
  M 210.70 296.36
  Q 210.98 298.55 210.98 302.75
  Q 210.92 549.97 210.92 569.75
  Q 210.92 586.63 220.41 599.62
  Q 232.39 616.01 252.25 621.15
  Q 258.62 622.80 276.36 622.58
  Q 281.36 622.52 749.89 622.57
  Q 766.01 622.57 772.48 621.00
  Q 789.40 616.90 801.00 603.46
  Q 813.67 588.77 813.66 567.51
  Q 813.56 383.37 813.64 184.11
  C 813.65 162.45 801.77 143.80 781.20 136.30
  C 773.93 133.65 767.20 133.84 757.76 133.83
  Q 617.19 133.68 393.00 133.83
  Q 387.71 133.83 386.54 133.24
  Q 332.91 105.98 300.91 89.61
  Q 289.46 83.75 278.46 89.50
  Q 239.73 109.77 199.49 130.72
  Q 191.98 134.64 188.90 141.88
  Q 187.29 145.66 185.93 152.43
  Q 180.54 179.22 170.61 228.57
  Q 168.55 238.85 174.90 247.32
  Q 191.47 269.41 209.57 293.57
  A 5.80 5.76 -67.3 0 1 210.70 296.36"
/>
<path stroke="#7e807f" vector-effect="non-scaling-stroke" d="
  M 360.21 836.54
  A 0.17 0.17 0.0 0 1 360.53 836.46
  Q 367.05 847.90 379.77 851.20
  C 409.49 858.91 433.98 841.64 438.88 811.84
  C 443.95 781.02 434.20 740.85 395.44 740.61
  Q 387.54 740.56 382.77 741.80
  Q 368.87 745.41 361.02 757.48
  A 0.32 0.31 61.9 0 1 360.44 757.30
  L 360.44 702.66
  A 1.17 1.16 -90.0 0 0 359.28 701.49
  L 334.39 701.49
  A 1.28 1.28 0.0 0 0 333.11 702.77
  L 333.11 849.16
  A 0.84 0.84 0.0 0 0 333.95 850.00
  L 359.09 850.00
  A 1.12 1.12 0.0 0 0 360.21 848.88
  L 360.21 836.54"
/>
<path stroke="#7e807f" vector-effect="non-scaling-stroke" d="
  M 742.43 850.77
  A 1.02 1.02 0.0 0 0 743.45 849.75
  L 743.45 728.00
  A 1.02 1.02 0.0 0 1 744.47 726.98
  L 783.98 726.98
  A 1.02 1.02 0.0 0 0 785.00 725.96
  L 785.00 703.06
  A 1.02 1.02 0.0 0 0 783.98 702.04
  L 674.00 702.04
  A 1.02 1.02 0.0 0 0 672.98 703.06
  L 672.98 725.97
  A 1.02 1.02 0.0 0 0 674.00 726.99
  L 714.74 726.99
  A 1.02 1.02 0.0 0 1 715.76 728.01
  L 715.76 849.75
  A 1.02 1.02 0.0 0 0 716.78 850.77
  L 742.43 850.77"
/>
<path stroke="#7e807f" vector-effect="non-scaling-stroke" d="
  M 862.03 768.74
  Q 845.84 740.27 825.74 704.28
  Q 824.47 702.00 821.78 701.97
  Q 806.81 701.82 794.71 702.09
  A 1.18 1.17 -12.3 0 0 793.65 703.73
  C 796.48 710.33 802.17 718.96 810.80 733.27
  C 822.34 752.39 834.09 773.07 846.00 792.71
  A 6.82 6.74 -60.8 0 1 846.97 796.21
  L 846.97 849.20
  A 0.88 0.88 0.0 0 0 847.85 850.08
  L 874.14 850.08
  A 1.03 1.02 -90.0 0 0 875.16 849.05
  L 875.16 795.74
  A 4.86 4.85 -29.9 0 1 875.83 793.28
  L 928.35 703.57
  A 0.93 0.93 0.0 0 0 927.54 702.17
  L 900.84 702.17
  A 2.74 2.74 0.0 0 0 898.44 703.59
  L 862.75 768.74
  A 0.41 0.41 0.0 0 1 862.03 768.74"
/>
<path stroke="#7e807f" vector-effect="non-scaling-stroke" d="
  M 124.44 767.52
  L 124.44 703.35
  A 1.01 1.01 0.0 0 0 123.43 702.34
  L 97.19 702.34
  A 1.23 1.23 0.0 0 0 95.96 703.57
  L 95.96 849.37
  A 1.62 1.62 0.0 0 0 97.58 850.99
  L 123.47 850.99
  A 1.22 1.22 0.0 0 0 124.69 849.77
  L 124.69 802.21
  A 3.77 3.75 67.6 0 1 125.79 799.55
  L 138.80 786.55
  A 0.25 0.25 0.0 0 1 139.19 786.59
  Q 158.44 816.43 179.08 848.72
  Q 180.58 851.06 183.52 851.07
  Q 199.71 851.15 212.05 851.00
  A 1.13 1.13 0.0 0 0 212.99 849.25
  L 159.39 766.94
  A 2.15 2.15 0.0 0 1 159.53 764.40
  L 208.71 704.74
  A 0.89 0.89 0.0 0 0 208.28 703.32
  Q 207.56 703.10 207.39 703.10
  Q 203.76 703.02 183.63 702.91
  C 180.84 702.89 179.66 703.34 177.93 705.42
  Q 155.64 732.12 124.96 767.72
  A 0.30 0.30 0.0 0 1 124.44 767.52"
/>
<path stroke="#7e807f" vector-effect="non-scaling-stroke" d="
  M 607.51 850.77
  Q 618.27 850.77 620.26 850.72
  A 1.35 1.34 -0.7 0 0 621.58 849.38
  L 621.58 727.46
  A 0.47 0.47 0.0 0 1 622.05 726.99
  L 661.80 726.99
  A 1.34 1.33 90.0 0 0 663.13 725.65
  L 663.14 703.32
  A 1.06 1.05 -0.7 0 0 662.06 702.27
  Q 661.20 702.27 607.44 702.29
  Q 553.68 702.32 552.82 702.32
  A 1.06 1.05 0.7 0 0 551.74 703.37
  L 551.77 725.70
  A 1.34 1.33 89.9 0 0 553.10 727.04
  L 592.85 727.00
  A 0.47 0.47 0.0 0 1 593.33 727.47
  L 593.44 849.39
  A 1.35 1.34 0.7 0 0 594.76 850.74
  Q 596.76 850.78 607.51 850.77"
/>
<path stroke="#7e807f" vector-effect="non-scaling-stroke" d="
  M 481.36 804.08
  L 550.51 804.08
  A 1.05 1.04 1.1 0 0 551.56 803.08
  C 552.10 790.77 551.26 777.98 546.33 766.67
  C 539.08 750.04 524.91 741.24 507.21 740.69
  Q 496.82 740.37 491.06 741.60
  C 470.22 746.08 456.33 763.64 453.37 784.33
  Q 451.17 799.72 453.60 812.98
  C 459.47 845.13 491.15 857.95 521.05 851.36
  C 533.03 848.72 541.91 842.09 549.40 832.46
  A 0.67 0.67 0.0 0 0 549.25 831.50
  L 533.27 820.36
  A 0.91 0.91 0.0 0 0 532.11 820.46
  Q 528.22 824.33 527.21 825.21
  C 520.86 830.76 512.21 832.53 504.02 832.03
  Q 486.29 830.96 481.67 814.34
  Q 480.56 810.36 480.60 804.84
  A 0.76 0.76 0.0 0 1 481.36 804.08"
/>
<path stroke="#7e807f" vector-effect="non-scaling-stroke" d="
  M 287.02 836.43
  L 287.02 849.17
  A 1.78 1.78 0.0 0 0 288.80 850.95
  L 312.55 850.95
  A 1.45 1.45 0.0 0 0 314.00 849.50
  L 314.00 744.58
  A 1.52 1.52 0.0 0 0 312.48 743.06
  L 288.14 743.06
  A 0.95 0.95 0.0 0 0 287.20 743.88
  Q 286.98 745.48 286.99 747.75
  Q 287.01 797.00 286.98 804.74
  Q 286.94 814.54 282.90 821.66
  C 278.03 830.24 269.69 832.23 260.28 830.91
  Q 251.00 829.60 246.90 821.19
  C 245.33 817.97 244.95 814.05 244.93 810.25
  Q 244.85 788.55 244.90 745.18
  A 1.18 1.18 0.0 0 0 243.72 744.00
  L 218.99 744.00
  A 1.26 1.26 0.0 0 0 217.73 745.26
  Q 217.79 796.95 217.84 814.25
  Q 217.86 820.65 218.74 825.75
  C 220.63 836.74 227.06 847.03 238.20 850.56
  C 255.68 856.10 276.76 853.78 286.63 836.33
  A 0.21 0.21 0.0 0 1 287.02 836.43"
/>
<path stroke="#091e2c" vector-effect="non-scaling-stroke" d="
  M 212.07 528.51
  Q 212.25 549.54 212.11 562.00
  Q 211.95 575.17 213.38 580.96
  Q 215.74 590.51 220.92 598.40
  Q 222.36 600.59 223.85 602.10
  C 226.33 604.61 227.88 606.91 230.93 609.30
  Q 240.89 617.14 252.85 620.25
  Q 257.47 621.44 266.27 621.44
  Q 572.78 621.42 751.58 621.45
  Q 765.88 621.45 771.35 620.22
  C 795.61 614.77 812.01 593.91 812.00 568.99
  Q 811.99 440.24 812.10 181.55
  C 812.10 177.96 812.09 175.14 811.38 172.11
  Q 806.11 149.65 785.20 139.09
  C 779.41 136.16 775.18 135.83 769.26 135.01
  Q 766.67 134.65 763.23 134.65
  Q 681.47 134.67 388.33 134.65
  A 4.93 4.91 58.1 0 1 386.13 134.13
  Q 345.87 113.87 301.29 90.93
  Q 294.34 87.36 287.30 88.09
  Q 283.20 88.52 275.36 92.52
  Q 268.24 96.15 260.98 99.87
  Q 250.88 105.04 213.58 124.97
  Q 210.26 126.74 204.83 129.25
  Q 199.88 131.54 196.02 134.67
  C 190.55 139.10 188.79 144.38 187.33 151.26
  Q 184.01 166.91 172.21 226.80
  Q 171.35 231.16 171.80 237.63
  A 1.21 1.14 -59.3 0 0 171.89 238.03
  L 174.45 244.31
  A 2.09 1.66 24.4 0 0 174.63 244.66
  Q 179.26 251.38 184.03 257.71
  Q 206.21 287.16 207.23 288.77
  C 208.27 290.40 211.58 293.52 211.84 295.99
  Q 212.06 298.15 212.06 317.98
  Q 212.06 325.63 212.04 471.00
  Q 212.04 479.84 212.19 482.75
  C 212.27 484.23 212.02 485.78 212.03 487.13
  C 212.15 501.00 211.96 516.61 212.07 528.51"
/>
<path stroke="#091e2c" vector-effect="non-scaling-stroke" d="
  M 357.85 223.95
  Q 356.15 221.32 356.61 218.39
  Q 358.34 207.10 355.92 196.11
  C 354.47 189.52 351.68 183.66 348.83 177.68
  C 346.33 172.43 355.78 167.87 359.05 166.24
  C 362.24 164.64 363.38 162.82 363.18 159.43
  A 3.46 3.21 -58.9 0 0 362.98 158.47
  Q 362.51 157.16 359.63 155.29
  Q 355.75 152.78 352.64 155.80
  Q 347.78 160.51 343.30 162.97
  Q 341.40 164.01 338.72 163.27
  A 2.11 2.10 -16.4 0 1 337.87 162.81
  C 327.97 153.67 317.27 146.91 303.78 144.53
  Q 299.07 143.70 296.93 142.93
  A 2.56 2.55 -85.7 0 1 295.29 141.02
  Q 294.01 134.48 295.46 128.27
  C 296.37 124.40 293.86 121.18 290.65 119.32
  Q 289.07 118.41 287.58 118.59
  Q 286.38 118.74 284.95 120.41
  C 282.69 123.03 281.73 125.42 282.78 129.34
  Q 283.89 133.50 282.96 139.59
  C 282.64 141.67 281.67 142.87 279.73 143.22
  Q 258.20 147.15 241.97 162.22
  C 238.58 165.37 233.51 163.56 230.87 160.69
  C 227.50 157.02 224.93 153.81 220.12 153.93
  C 215.01 154.07 212.52 159.10 215.53 163.27
  C 218.50 167.37 222.81 168.14 226.12 171.20
  C 228.33 173.25 230.40 174.94 229.52 177.82
  Q 228.79 180.18 226.45 184.49
  A 3.91 3.81 66.9 0 0 226.09 185.42
  C 225.13 189.17 223.18 192.39 222.60 196.82
  A 0.58 0.44 73.9 0 1 222.52 197.03
  L 221.91 197.94
  A 0.71 0.60 69.9 0 0 221.80 198.24
  C 221.44 201.89 220.91 204.51 221.09 207.43
  Q 221.32 211.26 221.63 220.98
  C 221.80 226.43 211.24 227.23 207.36 227.14
  C 199.57 226.96 199.98 238.39 207.22 239.99
  A 1.82 1.79 40.1 0 0 208.27 239.91
  C 213.58 237.80 216.53 236.49 221.03 236.11
  Q 225.40 235.74 227.44 239.84
  Q 236.21 257.50 252.46 269.28
  Q 255.15 271.24 253.99 274.74
  Q 252.72 278.55 250.18 281.69
  C 248.78 283.42 246.94 286.31 247.26 288.02
  Q 248.15 292.85 252.84 294.48
  Q 257.36 296.05 259.51 291.25
  C 261.72 286.32 263.10 275.56 271.20 277.31
  Q 272.71 277.64 280.58 278.90
  Q 286.43 279.84 289.99 279.59
  Q 300.25 278.87 308.52 277.16
  C 314.26 275.97 316.83 285.23 318.29 289.17
  A 4.24 4.01 19.5 0 0 318.70 289.97
  C 320.75 292.95 322.82 295.41 326.56 294.29
  C 331.22 292.89 332.19 287.45 329.65 283.96
  Q 325.97 278.91 324.34 274.79
  C 323.50 272.64 323.50 271.29 325.36 269.84
  Q 327.49 268.19 328.51 267.50
  C 330.99 265.84 332.67 263.56 334.98 261.81
  Q 335.79 261.19 338.33 258.50
  Q 346.35 249.96 351.26 239.74
  C 352.56 237.03 354.24 236.07 357.13 236.62
  Q 364.74 238.07 368.94 239.73
  A 2.63 2.37 -30.6 0 0 369.83 239.91
  Q 374.19 240.04 376.18 236.17
  A 2.56 2.51 -29.7 0 0 376.45 235.22
  Q 376.86 229.26 371.27 227.46
  A 2.67 2.63 53.0 0 0 370.39 227.33
  Q 364.24 227.40 358.47 224.49
  A 1.64 1.64 0.0 0 1 357.85 223.95"
/>
<path stroke="#092a41" vector-effect="non-scaling-stroke" d="
  M 240.38 323.03
  Q 240.21 324.17 240.20 326.29
  Q 240.03 388.54 240.18 462.00
  C 240.24 494.97 240.07 524.95 240.12 563.45
  Q 240.14 572.81 244.41 579.71
  C 250.38 589.35 262.04 594.06 273.25 594.06
  Q 324.33 594.03 747.25 594.06
  Q 755.46 594.06 758.08 593.57
  C 772.28 590.90 782.29 581.28 783.56 566.54
  Q 783.85 563.12 783.85 558.42
  Q 783.81 251.54 783.81 239.51
  Q 783.81 236.92 781.47 236.86
  Q 779.95 236.82 775.50 236.79
  Q 770.23 236.76 409.42 236.84
  Q 405.42 236.84 402.68 237.29
  A 1.82 1.82 0.0 0 0 401.29 238.41
  Q 400.48 240.43 399.49 242.01
  Q 382.39 269.47 380.17 272.93
  Q 370.70 287.67 364.10 298.57
  Q 355.68 312.45 354.18 313.86
  Q 345.77 321.78 334.28 321.85
  Q 307.64 322.02 241.71 321.88
  A 1.35 1.34 -85.8 0 0 240.38 323.03"
/>
<path stroke="#7e807f" vector-effect="non-scaling-stroke" d="
  M 287.45 119.95
  C 282.54 123.78 283.45 126.12 284.48 132.01
  Q 285.04 135.22 284.10 139.95
  Q 283.30 144.01 278.74 144.75
  Q 261.28 147.60 247.31 159.08
  Q 243.54 162.17 241.25 163.99
  A 3.28 3.26 -71.7 0 1 239.99 164.63
  C 233.85 166.25 230.13 161.50 226.01 157.45
  C 223.67 155.15 219.52 153.85 216.71 156.04
  A 2.15 2.11 -10.4 0 0 216.00 157.05
  Q 214.01 163.02 219.78 165.93
  C 224.17 168.13 232.96 173.09 230.40 178.71
  Q 227.58 184.91 226.89 186.63
  Q 220.68 201.93 222.89 218.74
  C 223.96 226.84 214.07 228.17 208.25 228.08
  Q 202.41 227.98 202.69 233.66
  Q 202.90 237.90 207.11 238.75
  A 2.59 2.54 -51.2 0 0 208.68 238.56
  C 212.46 236.80 219.20 234.23 223.61 235.17
  C 227.14 235.92 228.57 239.80 230.53 243.46
  C 235.74 253.16 243.37 261.38 252.60 268.00
  C 258.29 272.09 253.52 279.14 250.39 283.10
  C 248.15 285.92 247.37 289.31 250.30 291.91
  Q 252.91 294.22 255.90 293.74
  A 1.62 1.59 -73.8 0 0 256.88 293.19
  C 261.41 287.79 260.87 274.79 270.56 276.13
  Q 271.33 276.24 278.26 277.51
  Q 289.00 279.49 301.50 277.24
  C 305.10 276.59 311.15 274.73 313.42 277.41
  Q 316.47 281.02 318.39 286.64
  C 319.29 289.27 321.63 293.98 325.11 293.54
  Q 330.12 292.92 329.98 288.28
  Q 329.91 285.88 328.92 284.60
  Q 325.33 279.95 323.56 275.74
  Q 321.51 270.89 325.56 268.03
  Q 341.74 256.56 350.21 239.00
  Q 352.40 234.47 357.60 235.36
  Q 363.02 236.28 366.59 237.78
  C 369.56 239.03 371.95 239.72 374.17 237.38
  Q 376.48 234.95 375.01 231.75
  C 373.60 228.67 370.79 228.17 367.20 228.06
  C 363.17 227.95 355.00 225.75 355.43 220.48
  Q 356.09 212.46 355.76 205.25
  C 355.31 195.51 352.07 186.94 347.78 178.01
  C 344.66 171.48 356.66 166.52 360.37 164.14
  Q 362.02 163.08 362.23 160.23
  C 362.49 156.80 356.43 153.83 353.84 156.12
  C 350.37 159.18 341.76 167.45 337.62 163.88
  Q 332.07 159.07 329.88 157.39
  Q 316.67 147.17 299.73 144.85
  C 291.41 143.71 293.31 133.65 294.47 128.06
  C 295.32 123.99 292.35 120.78 288.79 119.70
  A 1.50 1.47 34.0 0 0 287.45 119.95"
/>
<path stroke="#7e807f" vector-effect="non-scaling-stroke" d="
  M 265.36 164.29
  Q 257.84 168.22 252.29 174.11
  A 0.79 0.78 39.9 0 0 252.40 175.28
  Q 262.94 182.96 273.04 188.68
  Q 276.37 190.57 278.51 189.45
  Q 280.65 188.33 281.00 184.52
  Q 282.07 172.96 281.79 159.92
  A 0.79 0.78 84.9 0 0 280.89 159.16
  Q 272.88 160.36 265.36 164.29"
/>
<path stroke="#7e807f" vector-effect="non-scaling-stroke" d="
  M 299.92 189.38
  C 302.09 190.50 305.03 189.03 307.02 187.77
  Q 315.96 182.08 325.67 175.65
  A 1.12 1.11 51.8 0 0 325.87 173.97
  Q 320.32 167.96 312.87 164.14
  Q 305.41 160.31 297.29 159.31
  A 1.12 1.11 2.5 0 0 296.05 160.46
  Q 296.49 172.09 297.09 182.67
  C 297.22 185.03 297.74 188.26 299.92 189.38"
/>
<path stroke="#8295a1" vector-effect="non-scaling-stroke" d="
  M 237.46 200.66
  Q 236.02 207.92 237.35 216.43
  A 0.97 0.97 0.0 0 0 238.55 217.22
  Q 249.33 214.42 260.07 210.27
  Q 264.07 208.72 264.60 206.03
  Q 265.13 203.35 262.02 200.39
  Q 253.68 192.46 244.78 185.76
  A 0.97 0.97 0.0 0 0 243.37 186.03
  Q 238.89 193.40 237.46 200.66"
/>
<path stroke="#7e807f" vector-effect="non-scaling-stroke" d="
  M 340.30 217.05
  A 1.10 1.10 0.0 0 0 341.36 216.04
  Q 342.62 200.12 335.20 186.95
  A 1.12 1.12 0.0 0 0 333.54 186.62
  Q 321.90 195.82 317.78 199.04
  C 315.52 200.80 312.82 203.91 314.47 206.85
  Q 316.01 209.60 319.31 210.70
  Q 333.56 215.42 337.95 216.67
  Q 339.38 217.07 340.30 217.05"
/>
<path stroke="#8295a1" vector-effect="non-scaling-stroke" d="
  M 299.02 211.82
  A 9.62 9.62 0.0 0 0 289.40 202.20
  A 9.62 9.62 0.0 0 0 279.78 211.82
  A 9.62 9.62 0.0 0 0 289.40 221.44
  A 9.62 9.62 0.0 0 0 299.02 211.82"
/>
<path stroke="#8295a1" vector-effect="non-scaling-stroke" d="
  M 248.89 244.81
  Q 253.86 250.96 259.47 254.82
  A 1.29 1.29 0.0 0 0 261.36 254.31
  Q 264.96 246.85 268.85 237.79
  C 269.95 235.22 272.17 229.91 270.26 227.55
  C 268.35 225.18 262.69 226.23 259.94 226.77
  Q 250.27 228.67 242.22 230.63
  A 1.29 1.29 0.0 0 0 241.33 232.37
  Q 243.93 238.67 248.89 244.81"
/>
<path stroke="#7e807f" vector-effect="non-scaling-stroke" d="
  M 308.75 227.44
  Q 307.15 229.42 308.38 232.72
  Q 312.39 243.49 317.47 253.98
  A 0.98 0.98 0.0 0 0 318.85 254.39
  C 323.09 251.90 326.82 247.90 329.69 244.35
  C 332.56 240.79 335.68 236.31 337.22 231.63
  A 0.98 0.98 0.0 0 0 336.53 230.37
  Q 325.20 227.62 313.82 225.97
  Q 310.35 225.47 308.75 227.44"
/>
<path stroke="#8295a1" vector-effect="non-scaling-stroke" d="
  M 274.51 259.48
  A 1.77 1.77 0.0 0 0 275.66 261.96
  Q 289.01 265.39 302.66 261.72
  A 1.99 1.99 0.0 0 0 303.99 259.06
  Q 300.49 250.24 294.76 241.46
  Q 292.60 238.14 290.65 237.20
  C 287.77 235.83 284.93 239.18 283.60 241.63
  Q 279.77 248.70 274.51 259.48"
/>
<path stroke="#091e2c" vector-effect="non-scaling-stroke" d="
  M 275.90 188.97
  A 2.66 2.65 -76.4 0 0 279.13 186.99
  Q 280.09 182.78 280.10 179.50
  Q 280.12 170.34 280.81 161.16
  A 0.72 0.71 -88.9 0 0 280.08 160.39
  Q 278.57 160.43 276.88 160.91
  Q 263.82 164.63 254.04 173.98
  A 1.05 1.05 0.0 0 0 254.32 175.68
  C 258.41 177.59 261.90 180.81 266.31 183.35
  Q 269.71 185.31 274.53 188.38
  Q 275.17 188.79 275.90 188.97"
/>
<path stroke="#091e2c" vector-effect="non-scaling-stroke" d="
  M 300.79 188.53
  Q 301.58 189.19 302.24 188.89
  C 309.96 185.30 317.02 180.15 324.35 175.30
  A 0.85 0.85 0.0 0 0 324.48 173.99
  Q 316.64 166.31 306.55 162.47
  Q 302.26 160.84 297.96 160.42
  A 0.78 0.77 1.0 0 0 297.11 161.24
  Q 297.78 171.91 298.53 184.97
  Q 298.67 187.34 300.01 188.12
  Q 300.31 188.29 300.41 188.33
  A 1.06 1.04 72.2 0 1 300.79 188.53"
/>
<path stroke="#091e2c" vector-effect="non-scaling-stroke" d="
  M 333.64 187.85
  Q 331.61 189.25 329.32 191.38
  C 325.46 194.97 321.59 197.47 317.38 200.85
  Q 314.90 202.84 315.04 205.75
  A 1.84 1.83 -62.6 0 0 315.33 206.67
  Q 316.61 208.65 318.88 209.41
  Q 329.78 213.03 339.13 215.84
  A 0.97 0.96 -87.5 0 0 340.35 214.72
  Q 339.77 211.93 339.97 209.36
  C 340.53 202.05 338.09 194.44 334.67 188.10
  A 0.71 0.71 0.0 0 0 333.64 187.85"
/>
<path stroke="#091e2c" vector-effect="non-scaling-stroke" d="
  M 309.05 230.96
  L 317.53 252.23
  A 1.37 1.36 -30.3 0 0 319.65 252.78
  Q 330.03 244.47 336.08 232.32
  A 0.75 0.75 0.0 0 0 335.64 231.27
  Q 334.12 230.77 333.53 230.70
  Q 328.83 230.13 324.18 228.89
  Q 320.03 227.77 316.06 228.10
  A 2.28 2.19 -36.4 0 1 315.06 227.97
  Q 314.03 227.59 312.56 227.48
  Q 309.94 227.28 309.07 229.29
  A 2.16 2.16 0.0 0 0 309.05 230.96"
/>
<path stroke="#05151f" vector-effect="non-scaling-stroke" d="
  M 437.62 413.72
  Q 436.86 412.94 436.26 413.55
  Q 412.10 437.65 379.91 469.91
  Q 377.06 472.77 376.35 479.43
  A 3.45 3.43 -51.0 0 0 376.49 480.80
  C 377.88 485.36 379.52 489.70 383.34 492.17
  Q 391.28 497.30 398.94 494.60
  Q 402.47 493.35 409.42 486.43
  Q 422.81 473.10 438.73 457.52
  C 440.43 455.86 441.89 453.89 443.69 452.27
  Q 445.64 450.52 447.57 448.50
  C 456.13 439.49 459.63 435.57 467.16 428.14
  Q 471.81 423.54 476.80 417.49
  A 5.18 4.47 82.4 0 0 477.39 416.59
  Q 483.48 404.54 472.66 398.79"
/>
<path stroke="#7e8b94" vector-effect="non-scaling-stroke" d="
  M 472.66 398.79
  Q 438.95 365.57 405.33 331.67
  C 400.68 326.97 397.03 323.30 389.93 324.46
  C 379.27 326.20 373.63 338.16 379.41 347.25
  A 0.91 0.74 12.4 0 0 379.53 347.40
  L 440.90 409.04
  A 0.88 0.88 0.0 0 1 441.01 410.15
  Q 439.69 412.13 437.62 413.72"
/>
<path stroke="#7e807f" vector-effect="non-scaling-stroke" d="
  M 472.66 398.79
  Q 476.68 402.92 477.30 404.76
  Q 480.04 412.97 474.10 418.96
  Q 444.27 449.06 404.31 489.41
  Q 396.63 497.17 386.78 492.89
  C 379.84 489.87 376.35 481.83 378.52 474.77
  Q 379.34 472.11 384.49 466.96
  Q 411.11 440.39 437.62 413.72"
/>
<path stroke="#05151f" vector-effect="non-scaling-stroke" d="
  M 629.91 484.18
  A 12.67 12.67 0.0 0 0 617.24 471.51
  L 511.78 471.51
  A 12.67 12.67 0.0 0 0 499.11 484.18
  L 499.11 489.96
  A 12.67 12.67 0.0 0 0 511.78 502.63
  L 617.24 502.63
  A 12.67 12.67 0.0 0 0 629.91 489.96
  L 629.91 484.18"
/>
<path stroke="#7e807f" vector-effect="non-scaling-stroke" d="
  M 628.82 484.54
  A 11.90 11.90 0.0 0 0 616.92 472.64
  L 511.92 472.64
  A 11.90 11.90 0.0 0 0 500.02 484.54
  L 500.02 489.78
  A 11.90 11.90 0.0 0 0 511.92 501.68
  L 616.92 501.68
  A 11.90 11.90 0.0 0 0 628.82 489.78
  L 628.82 484.54"
/>
<path stroke="#7e807f" vector-effect="non-scaling-stroke" d="
  M 360.34 796.25
  Q 360.11 802.94 361.16 809.49
  C 362.85 820.08 369.72 830.07 380.72 832.01
  Q 394.37 834.42 402.92 825.70
  C 410.20 818.29 411.84 807.95 412.18 797.99
  C 412.51 788.04 411.57 777.62 404.80 769.72
  Q 396.86 760.45 383.08 761.94
  C 371.97 763.14 364.45 772.64 362.04 783.10
  Q 360.56 789.56 360.34 796.25"
/>
<path stroke="#7e807f" vector-effect="non-scaling-stroke" d="
  M 481.77 785.94
  L 524.65 785.86
  A 0.52 0.52 0.0 0 0 525.17 785.34
  L 525.17 782.13
  A 22.25 20.57 89.9 0 0 504.56 759.92
  L 501.78 759.92
  A 22.25 20.57 89.9 0 0 481.25 782.21
  L 481.25 785.42
  A 0.52 0.52 0.0 0 0 481.77 785.94"
/>
</g>
<path fill="#f7f6f3" d="
  M 1024.00 0.00
  L 1024.00 1024.00
  L 0.00 1024.00
  L 0.00 0.00
  L 1024.00 0.00
  Z
  M 210.70 296.36
  Q 210.98 298.55 210.98 302.75
  Q 210.92 549.97 210.92 569.75
  Q 210.92 586.63 220.41 599.62
  Q 232.39 616.01 252.25 621.15
  Q 258.62 622.80 276.36 622.58
  Q 281.36 622.52 749.89 622.57
  Q 766.01 622.57 772.48 621.00
  Q 789.40 616.90 801.00 603.46
  Q 813.67 588.77 813.66 567.51
  Q 813.56 383.37 813.64 184.11
  C 813.65 162.45 801.77 143.80 781.20 136.30
  C 773.93 133.65 767.20 133.84 757.76 133.83
  Q 617.19 133.68 393.00 133.83
  Q 387.71 133.83 386.54 133.24
  Q 332.91 105.98 300.91 89.61
  Q 289.46 83.75 278.46 89.50
  Q 239.73 109.77 199.49 130.72
  Q 191.98 134.64 188.90 141.88
  Q 187.29 145.66 185.93 152.43
  Q 180.54 179.22 170.61 228.57
  Q 168.55 238.85 174.90 247.32
  Q 191.47 269.41 209.57 293.57
  A 5.80 5.76 -67.3 0 1 210.70 296.36
  Z
  M 360.21 836.54
  A 0.17 0.17 0.0 0 1 360.53 836.46
  Q 367.05 847.90 379.77 851.20
  C 409.49 858.91 433.98 841.64 438.88 811.84
  C 443.95 781.02 434.20 740.85 395.44 740.61
  Q 387.54 740.56 382.77 741.80
  Q 368.87 745.41 361.02 757.48
  A 0.32 0.31 61.9 0 1 360.44 757.30
  L 360.44 702.66
  A 1.17 1.16 -90.0 0 0 359.28 701.49
  L 334.39 701.49
  A 1.28 1.28 0.0 0 0 333.11 702.77
  L 333.11 849.16
  A 0.84 0.84 0.0 0 0 333.95 850.00
  L 359.09 850.00
  A 1.12 1.12 0.0 0 0 360.21 848.88
  L 360.21 836.54
  Z
  M 742.43 850.77
  A 1.02 1.02 0.0 0 0 743.45 849.75
  L 743.45 728.00
  A 1.02 1.02 0.0 0 1 744.47 726.98
  L 783.98 726.98
  A 1.02 1.02 0.0 0 0 785.00 725.96
  L 785.00 703.06
  A 1.02 1.02 0.0 0 0 783.98 702.04
  L 674.00 702.04
  A 1.02 1.02 0.0 0 0 672.98 703.06
  L 672.98 725.97
  A 1.02 1.02 0.0 0 0 674.00 726.99
  L 714.74 726.99
  A 1.02 1.02 0.0 0 1 715.76 728.01
  L 715.76 849.75
  A 1.02 1.02 0.0 0 0 716.78 850.77
  L 742.43 850.77
  Z
  M 862.03 768.74
  Q 845.84 740.27 825.74 704.28
  Q 824.47 702.00 821.78 701.97
  Q 806.81 701.82 794.71 702.09
  A 1.18 1.17 -12.3 0 0 793.65 703.73
  C 796.48 710.33 802.17 718.96 810.80 733.27
  C 822.34 752.39 834.09 773.07 846.00 792.71
  A 6.82 6.74 -60.8 0 1 846.97 796.21
  L 846.97 849.20
  A 0.88 0.88 0.0 0 0 847.85 850.08
  L 874.14 850.08
  A 1.03 1.02 -90.0 0 0 875.16 849.05
  L 875.16 795.74
  A 4.86 4.85 -29.9 0 1 875.83 793.28
  L 928.35 703.57
  A 0.93 0.93 0.0 0 0 927.54 702.17
  L 900.84 702.17
  A 2.74 2.74 0.0 0 0 898.44 703.59
  L 862.75 768.74
  A 0.41 0.41 0.0 0 1 862.03 768.74
  Z
  M 124.44 767.52
  L 124.44 703.35
  A 1.01 1.01 0.0 0 0 123.43 702.34
  L 97.19 702.34
  A 1.23 1.23 0.0 0 0 95.96 703.57
  L 95.96 849.37
  A 1.62 1.62 0.0 0 0 97.58 850.99
  L 123.47 850.99
  A 1.22 1.22 0.0 0 0 124.69 849.77
  L 124.69 802.21
  A 3.77 3.75 67.6 0 1 125.79 799.55
  L 138.80 786.55
  A 0.25 0.25 0.0 0 1 139.19 786.59
  Q 158.44 816.43 179.08 848.72
  Q 180.58 851.06 183.52 851.07
  Q 199.71 851.15 212.05 851.00
  A 1.13 1.13 0.0 0 0 212.99 849.25
  L 159.39 766.94
  A 2.15 2.15 0.0 0 1 159.53 764.40
  L 208.71 704.74
  A 0.89 0.89 0.0 0 0 208.28 703.32
  Q 207.56 703.10 207.39 703.10
  Q 203.76 703.02 183.63 702.91
  C 180.84 702.89 179.66 703.34 177.93 705.42
  Q 155.64 732.12 124.96 767.72
  A 0.30 0.30 0.0 0 1 124.44 767.52
  Z
  M 607.51 850.77
  Q 618.27 850.77 620.26 850.72
  A 1.35 1.34 -0.7 0 0 621.58 849.38
  L 621.58 727.46
  A 0.47 0.47 0.0 0 1 622.05 726.99
  L 661.80 726.99
  A 1.34 1.33 90.0 0 0 663.13 725.65
  L 663.14 703.32
  A 1.06 1.05 -0.7 0 0 662.06 702.27
  Q 661.20 702.27 607.44 702.29
  Q 553.68 702.32 552.82 702.32
  A 1.06 1.05 0.7 0 0 551.74 703.37
  L 551.77 725.70
  A 1.34 1.33 89.9 0 0 553.10 727.04
  L 592.85 727.00
  A 0.47 0.47 0.0 0 1 593.33 727.47
  L 593.44 849.39
  A 1.35 1.34 0.7 0 0 594.76 850.74
  Q 596.76 850.78 607.51 850.77
  Z
  M 481.36 804.08
  L 550.51 804.08
  A 1.05 1.04 1.1 0 0 551.56 803.08
  C 552.10 790.77 551.26 777.98 546.33 766.67
  C 539.08 750.04 524.91 741.24 507.21 740.69
  Q 496.82 740.37 491.06 741.60
  C 470.22 746.08 456.33 763.64 453.37 784.33
  Q 451.17 799.72 453.60 812.98
  C 459.47 845.13 491.15 857.95 521.05 851.36
  C 533.03 848.72 541.91 842.09 549.40 832.46
  A 0.67 0.67 0.0 0 0 549.25 831.50
  L 533.27 820.36
  A 0.91 0.91 0.0 0 0 532.11 820.46
  Q 528.22 824.33 527.21 825.21
  C 520.86 830.76 512.21 832.53 504.02 832.03
  Q 486.29 830.96 481.67 814.34
  Q 480.56 810.36 480.60 804.84
  A 0.76 0.76 0.0 0 1 481.36 804.08
  Z
  M 287.02 836.43
  L 287.02 849.17
  A 1.78 1.78 0.0 0 0 288.80 850.95
  L 312.55 850.95
  A 1.45 1.45 0.0 0 0 314.00 849.50
  L 314.00 744.58
  A 1.52 1.52 0.0 0 0 312.48 743.06
  L 288.14 743.06
  A 0.95 0.95 0.0 0 0 287.20 743.88
  Q 286.98 745.48 286.99 747.75
  Q 287.01 797.00 286.98 804.74
  Q 286.94 814.54 282.90 821.66
  C 278.03 830.24 269.69 832.23 260.28 830.91
  Q 251.00 829.60 246.90 821.19
  C 245.33 817.97 244.95 814.05 244.93 810.25
  Q 244.85 788.55 244.90 745.18
  A 1.18 1.18 0.0 0 0 243.72 744.00
  L 218.99 744.00
  A 1.26 1.26 0.0 0 0 217.73 745.26
  Q 217.79 796.95 217.84 814.25
  Q 217.86 820.65 218.74 825.75
  C 220.63 836.74 227.06 847.03 238.20 850.56
  C 255.68 856.10 276.76 853.78 286.63 836.33
  A 0.21 0.21 0.0 0 1 287.02 836.43
  Z"
/>
<path fill="#05090a" d="
  M 210.70 296.36
  A 5.80 5.76 -67.3 0 0 209.57 293.57
  Q 191.47 269.41 174.90 247.32
  Q 168.55 238.85 170.61 228.57
  Q 180.54 179.22 185.93 152.43
  Q 187.29 145.66 188.90 141.88
  Q 191.98 134.64 199.49 130.72
  Q 239.73 109.77 278.46 89.50
  Q 289.46 83.75 300.91 89.61
  Q 332.91 105.98 386.54 133.24
  Q 387.71 133.83 393.00 133.83
  Q 617.19 133.68 757.76 133.83
  C 767.20 133.84 773.93 133.65 781.20 136.30
  C 801.77 143.80 813.65 162.45 813.64 184.11
  Q 813.56 383.37 813.66 567.51
  Q 813.67 588.77 801.00 603.46
  Q 789.40 616.90 772.48 621.00
  Q 766.01 622.57 749.89 622.57
  Q 281.36 622.52 276.36 622.58
  Q 258.62 622.80 252.25 621.15
  Q 232.39 616.01 220.41 599.62
  Q 210.92 586.63 210.92 569.75
  Q 210.92 549.97 210.98 302.75
  Q 210.98 298.55 210.70 296.36
  Z
  M 212.07 528.51
  Q 212.25 549.54 212.11 562.00
  Q 211.95 575.17 213.38 580.96
  Q 215.74 590.51 220.92 598.40
  Q 222.36 600.59 223.85 602.10
  C 226.33 604.61 227.88 606.91 230.93 609.30
  Q 240.89 617.14 252.85 620.25
  Q 257.47 621.44 266.27 621.44
  Q 572.78 621.42 751.58 621.45
  Q 765.88 621.45 771.35 620.22
  C 795.61 614.77 812.01 593.91 812.00 568.99
  Q 811.99 440.24 812.10 181.55
  C 812.10 177.96 812.09 175.14 811.38 172.11
  Q 806.11 149.65 785.20 139.09
  C 779.41 136.16 775.18 135.83 769.26 135.01
  Q 766.67 134.65 763.23 134.65
  Q 681.47 134.67 388.33 134.65
  A 4.93 4.91 58.1 0 1 386.13 134.13
  Q 345.87 113.87 301.29 90.93
  Q 294.34 87.36 287.30 88.09
  Q 283.20 88.52 275.36 92.52
  Q 268.24 96.15 260.98 99.87
  Q 250.88 105.04 213.58 124.97
  Q 210.26 126.74 204.83 129.25
  Q 199.88 131.54 196.02 134.67
  C 190.55 139.10 188.79 144.38 187.33 151.26
  Q 184.01 166.91 172.21 226.80
  Q 171.35 231.16 171.80 237.63
  A 1.21 1.14 -59.3 0 0 171.89 238.03
  L 174.45 244.31
  A 2.09 1.66 24.4 0 0 174.63 244.66
  Q 179.26 251.38 184.03 257.71
  Q 206.21 287.16 207.23 288.77
  C 208.27 290.40 211.58 293.52 211.84 295.99
  Q 212.06 298.15 212.06 317.98
  Q 212.06 325.63 212.04 471.00
  Q 212.04 479.84 212.19 482.75
  C 212.27 484.23 212.02 485.78 212.03 487.13
  C 212.15 501.00 211.96 516.61 212.07 528.51
  Z"
/>
<path fill="#0d334e" d="
  M 212.07 528.51
  C 211.96 516.61 212.15 501.00 212.03 487.13
  C 212.02 485.78 212.27 484.23 212.19 482.75
  Q 212.04 479.84 212.04 471.00
  Q 212.06 325.63 212.06 317.98
  Q 212.06 298.15 211.84 295.99
  C 211.58 293.52 208.27 290.40 207.23 288.77
  Q 206.21 287.16 184.03 257.71
  Q 179.26 251.38 174.63 244.66
  A 2.09 1.66 24.4 0 1 174.45 244.31
  L 171.89 238.03
  A 1.21 1.14 -59.3 0 1 171.80 237.63
  Q 171.35 231.16 172.21 226.80
  Q 184.01 166.91 187.33 151.26
  C 188.79 144.38 190.55 139.10 196.02 134.67
  Q 199.88 131.54 204.83 129.25
  Q 210.26 126.74 213.58 124.97
  Q 250.88 105.04 260.98 99.87
  Q 268.24 96.15 275.36 92.52
  Q 283.20 88.52 287.30 88.09
  Q 294.34 87.36 301.29 90.93
  Q 345.87 113.87 386.13 134.13
  A 4.93 4.91 58.1 0 0 388.33 134.65
  Q 681.47 134.67 763.23 134.65
  Q 766.67 134.65 769.26 135.01
  C 775.18 135.83 779.41 136.16 785.20 139.09
  Q 806.11 149.65 811.38 172.11
  C 812.09 175.14 812.10 177.96 812.10 181.55
  Q 811.99 440.24 812.00 568.99
  C 812.01 593.91 795.61 614.77 771.35 620.22
  Q 765.88 621.45 751.58 621.45
  Q 572.78 621.42 266.27 621.44
  Q 257.47 621.44 252.85 620.25
  Q 240.89 617.14 230.93 609.30
  C 227.88 606.91 226.33 604.61 223.85 602.10
  Q 222.36 600.59 220.92 598.40
  Q 215.74 590.51 213.38 580.96
  Q 211.95 575.17 212.11 562.00
  Q 212.25 549.54 212.07 528.51
  Z
  M 357.85 223.95
  Q 356.15 221.32 356.61 218.39
  Q 358.34 207.10 355.92 196.11
  C 354.47 189.52 351.68 183.66 348.83 177.68
  C 346.33 172.43 355.78 167.87 359.05 166.24
  C 362.24 164.64 363.38 162.82 363.18 159.43
  A 3.46 3.21 -58.9 0 0 362.98 158.47
  Q 362.51 157.16 359.63 155.29
  Q 355.75 152.78 352.64 155.80
  Q 347.78 160.51 343.30 162.97
  Q 341.40 164.01 338.72 163.27
  A 2.11 2.10 -16.4 0 1 337.87 162.81
  C 327.97 153.67 317.27 146.91 303.78 144.53
  Q 299.07 143.70 296.93 142.93
  A 2.56 2.55 -85.7 0 1 295.29 141.02
  Q 294.01 134.48 295.46 128.27
  C 296.37 124.40 293.86 121.18 290.65 119.32
  Q 289.07 118.41 287.58 118.59
  Q 286.38 118.74 284.95 120.41
  C 282.69 123.03 281.73 125.42 282.78 129.34
  Q 283.89 133.50 282.96 139.59
  C 282.64 141.67 281.67 142.87 279.73 143.22
  Q 258.20 147.15 241.97 162.22
  C 238.58 165.37 233.51 163.56 230.87 160.69
  C 227.50 157.02 224.93 153.81 220.12 153.93
  C 215.01 154.07 212.52 159.10 215.53 163.27
  C 218.50 167.37 222.81 168.14 226.12 171.20
  C 228.33 173.25 230.40 174.94 229.52 177.82
  Q 228.79 180.18 226.45 184.49
  A 3.91 3.81 66.9 0 0 226.09 185.42
  C 225.13 189.17 223.18 192.39 222.60 196.82
  A 0.58 0.44 73.9 0 1 222.52 197.03
  L 221.91 197.94
  A 0.71 0.60 69.9 0 0 221.80 198.24
  C 221.44 201.89 220.91 204.51 221.09 207.43
  Q 221.32 211.26 221.63 220.98
  C 221.80 226.43 211.24 227.23 207.36 227.14
  C 199.57 226.96 199.98 238.39 207.22 239.99
  A 1.82 1.79 40.1 0 0 208.27 239.91
  C 213.58 237.80 216.53 236.49 221.03 236.11
  Q 225.40 235.74 227.44 239.84
  Q 236.21 257.50 252.46 269.28
  Q 255.15 271.24 253.99 274.74
  Q 252.72 278.55 250.18 281.69
  C 248.78 283.42 246.94 286.31 247.26 288.02
  Q 248.15 292.85 252.84 294.48
  Q 257.36 296.05 259.51 291.25
  C 261.72 286.32 263.10 275.56 271.20 277.31
  Q 272.71 277.64 280.58 278.90
  Q 286.43 279.84 289.99 279.59
  Q 300.25 278.87 308.52 277.16
  C 314.26 275.97 316.83 285.23 318.29 289.17
  A 4.24 4.01 19.5 0 0 318.70 289.97
  C 320.75 292.95 322.82 295.41 326.56 294.29
  C 331.22 292.89 332.19 287.45 329.65 283.96
  Q 325.97 278.91 324.34 274.79
  C 323.50 272.64 323.50 271.29 325.36 269.84
  Q 327.49 268.19 328.51 267.50
  C 330.99 265.84 332.67 263.56 334.98 261.81
  Q 335.79 261.19 338.33 258.50
  Q 346.35 249.96 351.26 239.74
  C 352.56 237.03 354.24 236.07 357.13 236.62
  Q 364.74 238.07 368.94 239.73
  A 2.63 2.37 -30.6 0 0 369.83 239.91
  Q 374.19 240.04 376.18 236.17
  A 2.56 2.51 -29.7 0 0 376.45 235.22
  Q 376.86 229.26 371.27 227.46
  A 2.67 2.63 53.0 0 0 370.39 227.33
  Q 364.24 227.40 358.47 224.49
  A 1.64 1.64 0.0 0 1 357.85 223.95
  Z
  M 240.38 323.03
  Q 240.21 324.17 240.20 326.29
  Q 240.03 388.54 240.18 462.00
  C 240.24 494.97 240.07 524.95 240.12 563.45
  Q 240.14 572.81 244.41 579.71
  C 250.38 589.35 262.04 594.06 273.25 594.06
  Q 324.33 594.03 747.25 594.06
  Q 755.46 594.06 758.08 593.57
  C 772.28 590.90 782.29 581.28 783.56 566.54
  Q 783.85 563.12 783.85 558.42
  Q 783.81 251.54 783.81 239.51
  Q 783.81 236.92 781.47 236.86
  Q 779.95 236.82 775.50 236.79
  Q 770.23 236.76 409.42 236.84
  Q 405.42 236.84 402.68 237.29
  A 1.82 1.82 0.0 0 0 401.29 238.41
  Q 400.48 240.43 399.49 242.01
  Q 382.39 269.47 380.17 272.93
  Q 370.70 287.67 364.10 298.57
  Q 355.68 312.45 354.18 313.86
  Q 345.77 321.78 334.28 321.85
  Q 307.64 322.02 241.71 321.88
  A 1.35 1.34 -85.8 0 0 240.38 323.03
  Z"
/>
<path fill="#05090a" d="
  M 358.47 224.49
  Q 364.24 227.40 370.39 227.33
  A 2.67 2.63 53.0 0 1 371.27 227.46
  Q 376.86 229.26 376.45 235.22
  A 2.56 2.51 -29.7 0 1 376.18 236.17
  Q 374.19 240.04 369.83 239.91
  A 2.63 2.37 -30.6 0 1 368.94 239.73
  Q 364.74 238.07 357.13 236.62
  C 354.24 236.07 352.56 237.03 351.26 239.74
  Q 346.35 249.96 338.33 258.50
  Q 335.79 261.19 334.98 261.81
  C 332.67 263.56 330.99 265.84 328.51 267.50
  Q 327.49 268.19 325.36 269.84
  C 323.50 271.29 323.50 272.64 324.34 274.79
  Q 325.97 278.91 329.65 283.96
  C 332.19 287.45 331.22 292.89 326.56 294.29
  C 322.82 295.41 320.75 292.95 318.70 289.97
  A 4.24 4.01 19.5 0 1 318.29 289.17
  C 316.83 285.23 314.26 275.97 308.52 277.16
  Q 300.25 278.87 289.99 279.59
  Q 286.43 279.84 280.58 278.90
  Q 272.71 277.64 271.20 277.31
  C 263.10 275.56 261.72 286.32 259.51 291.25
  Q 257.36 296.05 252.84 294.48
  Q 248.15 292.85 247.26 288.02
  C 246.94 286.31 248.78 283.42 250.18 281.69
  Q 252.72 278.55 253.99 274.74
  Q 255.15 271.24 252.46 269.28
  Q 236.21 257.50 227.44 239.84
  Q 225.40 235.74 221.03 236.11
  C 216.53 236.49 213.58 237.80 208.27 239.91
  A 1.82 1.79 40.1 0 1 207.22 239.99
  C 199.98 238.39 199.57 226.96 207.36 227.14
  C 211.24 227.23 221.80 226.43 221.63 220.98
  Q 221.32 211.26 221.09 207.43
  C 220.91 204.51 221.44 201.89 221.80 198.24
  A 0.71 0.60 69.9 0 1 221.91 197.94
  L 222.52 197.03
  A 0.58 0.44 73.9 0 0 222.60 196.82
  C 223.18 192.39 225.13 189.17 226.09 185.42
  A 3.91 3.81 66.9 0 1 226.45 184.49
  Q 228.79 180.18 229.52 177.82
  C 230.40 174.94 228.33 173.25 226.12 171.20
  C 222.81 168.14 218.50 167.37 215.53 163.27
  C 212.52 159.10 215.01 154.07 220.12 153.93
  C 224.93 153.81 227.50 157.02 230.87 160.69
  C 233.51 163.56 238.58 165.37 241.97 162.22
  Q 258.20 147.15 279.73 143.22
  C 281.67 142.87 282.64 141.67 282.96 139.59
  Q 283.89 133.50 282.78 129.34
  C 281.73 125.42 282.69 123.03 284.95 120.41
  Q 286.38 118.74 287.58 118.59
  Q 289.07 118.41 290.65 119.32
  C 293.86 121.18 296.37 124.40 295.46 128.27
  Q 294.01 134.48 295.29 141.02
  A 2.56 2.55 -85.7 0 0 296.93 142.93
  Q 299.07 143.70 303.78 144.53
  C 317.27 146.91 327.97 153.67 337.87 162.81
  A 2.11 2.10 -16.4 0 0 338.72 163.27
  Q 341.40 164.01 343.30 162.97
  Q 347.78 160.51 352.64 155.80
  Q 355.75 152.78 359.63 155.29
  Q 362.51 157.16 362.98 158.47
  A 3.46 3.21 -58.9 0 1 363.18 159.43
  C 363.38 162.82 362.24 164.64 359.05 166.24
  C 355.78 167.87 346.33 172.43 348.83 177.68
  C 351.68 183.66 354.47 189.52 355.92 196.11
  Q 358.34 207.10 356.61 218.39
  Q 356.15 221.32 357.85 223.95
  A 1.64 1.64 0.0 0 0 358.47 224.49
  Z
  M 287.45 119.95
  C 282.54 123.78 283.45 126.12 284.48 132.01
  Q 285.04 135.22 284.10 139.95
  Q 283.30 144.01 278.74 144.75
  Q 261.28 147.60 247.31 159.08
  Q 243.54 162.17 241.25 163.99
  A 3.28 3.26 -71.7 0 1 239.99 164.63
  C 233.85 166.25 230.13 161.50 226.01 157.45
  C 223.67 155.15 219.52 153.85 216.71 156.04
  A 2.15 2.11 -10.4 0 0 216.00 157.05
  Q 214.01 163.02 219.78 165.93
  C 224.17 168.13 232.96 173.09 230.40 178.71
  Q 227.58 184.91 226.89 186.63
  Q 220.68 201.93 222.89 218.74
  C 223.96 226.84 214.07 228.17 208.25 228.08
  Q 202.41 227.98 202.69 233.66
  Q 202.90 237.90 207.11 238.75
  A 2.59 2.54 -51.2 0 0 208.68 238.56
  C 212.46 236.80 219.20 234.23 223.61 235.17
  C 227.14 235.92 228.57 239.80 230.53 243.46
  C 235.74 253.16 243.37 261.38 252.60 268.00
  C 258.29 272.09 253.52 279.14 250.39 283.10
  C 248.15 285.92 247.37 289.31 250.30 291.91
  Q 252.91 294.22 255.90 293.74
  A 1.62 1.59 -73.8 0 0 256.88 293.19
  C 261.41 287.79 260.87 274.79 270.56 276.13
  Q 271.33 276.24 278.26 277.51
  Q 289.00 279.49 301.50 277.24
  C 305.10 276.59 311.15 274.73 313.42 277.41
  Q 316.47 281.02 318.39 286.64
  C 319.29 289.27 321.63 293.98 325.11 293.54
  Q 330.12 292.92 329.98 288.28
  Q 329.91 285.88 328.92 284.60
  Q 325.33 279.95 323.56 275.74
  Q 321.51 270.89 325.56 268.03
  Q 341.74 256.56 350.21 239.00
  Q 352.40 234.47 357.60 235.36
  Q 363.02 236.28 366.59 237.78
  C 369.56 239.03 371.95 239.72 374.17 237.38
  Q 376.48 234.95 375.01 231.75
  C 373.60 228.67 370.79 228.17 367.20 228.06
  C 363.17 227.95 355.00 225.75 355.43 220.48
  Q 356.09 212.46 355.76 205.25
  C 355.31 195.51 352.07 186.94 347.78 178.01
  C 344.66 171.48 356.66 166.52 360.37 164.14
  Q 362.02 163.08 362.23 160.23
  C 362.49 156.80 356.43 153.83 353.84 156.12
  C 350.37 159.18 341.76 167.45 337.62 163.88
  Q 332.07 159.07 329.88 157.39
  Q 316.67 147.17 299.73 144.85
  C 291.41 143.71 293.31 133.65 294.47 128.06
  C 295.32 123.99 292.35 120.78 288.79 119.70
  A 1.50 1.47 34.0 0 0 287.45 119.95
  Z"
/>
<path fill="#f7f6f3" d="
  M 288.79 119.70
  C 292.35 120.78 295.32 123.99 294.47 128.06
  C 293.31 133.65 291.41 143.71 299.73 144.85
  Q 316.67 147.17 329.88 157.39
  Q 332.07 159.07 337.62 163.88
  C 341.76 167.45 350.37 159.18 353.84 156.12
  C 356.43 153.83 362.49 156.80 362.23 160.23
  Q 362.02 163.08 360.37 164.14
  C 356.66 166.52 344.66 171.48 347.78 178.01
  C 352.07 186.94 355.31 195.51 355.76 205.25
  Q 356.09 212.46 355.43 220.48
  C 355.00 225.75 363.17 227.95 367.20 228.06
  C 370.79 228.17 373.60 228.67 375.01 231.75
  Q 376.48 234.95 374.17 237.38
  C 371.95 239.72 369.56 239.03 366.59 237.78
  Q 363.02 236.28 357.60 235.36
  Q 352.40 234.47 350.21 239.00
  Q 341.74 256.56 325.56 268.03
  Q 321.51 270.89 323.56 275.74
  Q 325.33 279.95 328.92 284.60
  Q 329.91 285.88 329.98 288.28
  Q 330.12 292.92 325.11 293.54
  C 321.63 293.98 319.29 289.27 318.39 286.64
  Q 316.47 281.02 313.42 277.41
  C 311.15 274.73 305.10 276.59 301.50 277.24
  Q 289.00 279.49 278.26 277.51
  Q 271.33 276.24 270.56 276.13
  C 260.87 274.79 261.41 287.79 256.88 293.19
  A 1.62 1.59 -73.8 0 1 255.90 293.74
  Q 252.91 294.22 250.30 291.91
  C 247.37 289.31 248.15 285.92 250.39 283.10
  C 253.52 279.14 258.29 272.09 252.60 268.00
  C 243.37 261.38 235.74 253.16 230.53 243.46
  C 228.57 239.80 227.14 235.92 223.61 235.17
  C 219.20 234.23 212.46 236.80 208.68 238.56
  A 2.59 2.54 -51.2 0 1 207.11 238.75
  Q 202.90 237.90 202.69 233.66
  Q 202.41 227.98 208.25 228.08
  C 214.07 228.17 223.96 226.84 222.89 218.74
  Q 220.68 201.93 226.89 186.63
  Q 227.58 184.91 230.40 178.71
  C 232.96 173.09 224.17 168.13 219.78 165.93
  Q 214.01 163.02 216.00 157.05
  A 2.15 2.11 -10.4 0 1 216.71 156.04
  C 219.52 153.85 223.67 155.15 226.01 157.45
  C 230.13 161.50 233.85 166.25 239.99 164.63
  A 3.28 3.26 -71.7 0 0 241.25 163.99
  Q 243.54 162.17 247.31 159.08
  Q 261.28 147.60 278.74 144.75
  Q 283.30 144.01 284.10 139.95
  Q 285.04 135.22 284.48 132.01
  C 283.45 126.12 282.54 123.78 287.45 119.95
  A 1.50 1.47 34.0 0 1 288.79 119.70
  Z
  M 265.36 164.29
  Q 257.84 168.22 252.29 174.11
  A 0.79 0.78 39.9 0 0 252.40 175.28
  Q 262.94 182.96 273.04 188.68
  Q 276.37 190.57 278.51 189.45
  Q 280.65 188.33 281.00 184.52
  Q 282.07 172.96 281.79 159.92
  A 0.79 0.78 84.9 0 0 280.89 159.16
  Q 272.88 160.36 265.36 164.29
  Z
  M 299.92 189.38
  C 302.09 190.50 305.03 189.03 307.02 187.77
  Q 315.96 182.08 325.67 175.65
  A 1.12 1.11 51.8 0 0 325.87 173.97
  Q 320.32 167.96 312.87 164.14
  Q 305.41 160.31 297.29 159.31
  A 1.12 1.11 2.5 0 0 296.05 160.46
  Q 296.49 172.09 297.09 182.67
  C 297.22 185.03 297.74 188.26 299.92 189.38
  Z
  M 237.46 200.66
  Q 236.02 207.92 237.35 216.43
  A 0.97 0.97 0.0 0 0 238.55 217.22
  Q 249.33 214.42 260.07 210.27
  Q 264.07 208.72 264.60 206.03
  Q 265.13 203.35 262.02 200.39
  Q 253.68 192.46 244.78 185.76
  A 0.97 0.97 0.0 0 0 243.37 186.03
  Q 238.89 193.40 237.46 200.66
  Z
  M 340.30 217.05
  A 1.10 1.10 0.0 0 0 341.36 216.04
  Q 342.62 200.12 335.20 186.95
  A 1.12 1.12 0.0 0 0 333.54 186.62
  Q 321.90 195.82 317.78 199.04
  C 315.52 200.80 312.82 203.91 314.47 206.85
  Q 316.01 209.60 319.31 210.70
  Q 333.56 215.42 337.95 216.67
  Q 339.38 217.07 340.30 217.05
  Z
  M 299.02 211.82
  A 9.62 9.62 0.0 0 0 289.40 202.20
  A 9.62 9.62 0.0 0 0 279.78 211.82
  A 9.62 9.62 0.0 0 0 289.40 221.44
  A 9.62 9.62 0.0 0 0 299.02 211.82
  Z
  M 248.89 244.81
  Q 253.86 250.96 259.47 254.82
  A 1.29 1.29 0.0 0 0 261.36 254.31
  Q 264.96 246.85 268.85 237.79
  C 269.95 235.22 272.17 229.91 270.26 227.55
  C 268.35 225.18 262.69 226.23 259.94 226.77
  Q 250.27 228.67 242.22 230.63
  A 1.29 1.29 0.0 0 0 241.33 232.37
  Q 243.93 238.67 248.89 244.81
  Z
  M 308.75 227.44
  Q 307.15 229.42 308.38 232.72
  Q 312.39 243.49 317.47 253.98
  A 0.98 0.98 0.0 0 0 318.85 254.39
  C 323.09 251.90 326.82 247.90 329.69 244.35
  C 332.56 240.79 335.68 236.31 337.22 231.63
  A 0.98 0.98 0.0 0 0 336.53 230.37
  Q 325.20 227.62 313.82 225.97
  Q 310.35 225.47 308.75 227.44
  Z
  M 274.51 259.48
  A 1.77 1.77 0.0 0 0 275.66 261.96
  Q 289.01 265.39 302.66 261.72
  A 1.99 1.99 0.0 0 0 303.99 259.06
  Q 300.49 250.24 294.76 241.46
  Q 292.60 238.14 290.65 237.20
  C 287.77 235.83 284.93 239.18 283.60 241.63
  Q 279.77 248.70 274.51 259.48
  Z"
/>
<path fill="#05090a" d="
  M 278.51 189.45
  Q 276.37 190.57 273.04 188.68
  Q 262.94 182.96 252.40 175.28
  A 0.79 0.78 39.9 0 1 252.29 174.11
  Q 257.84 168.22 265.36 164.29
  Q 272.88 160.36 280.89 159.16
  A 0.79 0.78 84.9 0 1 281.79 159.92
  Q 282.07 172.96 281.00 184.52
  Q 280.65 188.33 278.51 189.45
  Z
  M 275.90 188.97
  A 2.66 2.65 -76.4 0 0 279.13 186.99
  Q 280.09 182.78 280.10 179.50
  Q 280.12 170.34 280.81 161.16
  A 0.72 0.71 -88.9 0 0 280.08 160.39
  Q 278.57 160.43 276.88 160.91
  Q 263.82 164.63 254.04 173.98
  A 1.05 1.05 0.0 0 0 254.32 175.68
  C 258.41 177.59 261.90 180.81 266.31 183.35
  Q 269.71 185.31 274.53 188.38
  Q 275.17 188.79 275.90 188.97
  Z"
/>
<path fill="#05090a" d="
  M 312.87 164.14
  Q 320.32 167.96 325.87 173.97
  A 1.12 1.11 51.8 0 1 325.67 175.65
  Q 315.96 182.08 307.02 187.77
  C 305.03 189.03 302.09 190.50 299.92 189.38
  C 297.74 188.26 297.22 185.03 297.09 182.67
  Q 296.49 172.09 296.05 160.46
  A 1.12 1.11 2.5 0 1 297.29 159.31
  Q 305.41 160.31 312.87 164.14
  Z
  M 300.79 188.53
  Q 301.58 189.19 302.24 188.89
  C 309.96 185.30 317.02 180.15 324.35 175.30
  A 0.85 0.85 0.0 0 0 324.48 173.99
  Q 316.64 166.31 306.55 162.47
  Q 302.26 160.84 297.96 160.42
  A 0.78 0.77 1.0 0 0 297.11 161.24
  Q 297.78 171.91 298.53 184.97
  Q 298.67 187.34 300.01 188.12
  Q 300.31 188.29 300.41 188.33
  A 1.06 1.04 72.2 0 1 300.79 188.53
  Z"
/>
<path fill="#0d334e" d="
  M 275.90 188.97
  Q 275.17 188.79 274.53 188.38
  Q 269.71 185.31 266.31 183.35
  C 261.90 180.81 258.41 177.59 254.32 175.68
  A 1.05 1.05 0.0 0 1 254.04 173.98
  Q 263.82 164.63 276.88 160.91
  Q 278.57 160.43 280.08 160.39
  A 0.72 0.71 -88.9 0 1 280.81 161.16
  Q 280.12 170.34 280.10 179.50
  Q 280.09 182.78 279.13 186.99
  A 2.66 2.65 -76.4 0 1 275.90 188.97
  Z"
/>
<path fill="#0d334e" d="
  M 300.41 188.33
  Q 300.31 188.29 300.01 188.12
  Q 298.67 187.34 298.53 184.97
  Q 297.78 171.91 297.11 161.24
  A 0.78 0.77 1.0 0 1 297.96 160.42
  Q 302.26 160.84 306.55 162.47
  Q 316.64 166.31 324.48 173.99
  A 0.85 0.85 0.0 0 1 324.35 175.30
  C 317.02 180.15 309.96 185.30 302.24 188.89
  Q 301.58 189.19 300.79 188.53
  A 1.06 1.04 72.2 0 0 300.41 188.33
  Z"
/>
<path fill="#0d334e" d="
  M 264.60 206.03
  Q 264.07 208.72 260.07 210.27
  Q 249.33 214.42 238.55 217.22
  A 0.97 0.97 0.0 0 1 237.35 216.43
  Q 236.02 207.92 237.46 200.66
  Q 238.89 193.40 243.37 186.03
  A 0.97 0.97 0.0 0 1 244.78 185.76
  Q 253.68 192.46 262.02 200.39
  Q 265.13 203.35 264.60 206.03
  Z"
/>
<path fill="#05090a" d="
  M 340.30 217.05
  Q 339.38 217.07 337.95 216.67
  Q 333.56 215.42 319.31 210.70
  Q 316.01 209.60 314.47 206.85
  C 312.82 203.91 315.52 200.80 317.78 199.04
  Q 321.90 195.82 333.54 186.62
  A 1.12 1.12 0.0 0 1 335.20 186.95
  Q 342.62 200.12 341.36 216.04
  A 1.10 1.10 0.0 0 1 340.30 217.05
  Z
  M 333.64 187.85
  Q 331.61 189.25 329.32 191.38
  C 325.46 194.97 321.59 197.47 317.38 200.85
  Q 314.90 202.84 315.04 205.75
  A 1.84 1.83 -62.6 0 0 315.33 206.67
  Q 316.61 208.65 318.88 209.41
  Q 329.78 213.03 339.13 215.84
  A 0.97 0.96 -87.5 0 0 340.35 214.72
  Q 339.77 211.93 339.97 209.36
  C 340.53 202.05 338.09 194.44 334.67 188.10
  A 0.71 0.71 0.0 0 0 333.64 187.85
  Z"
/>
<path fill="#0d334e" d="
  M 333.64 187.85
  A 0.71 0.71 0.0 0 1 334.67 188.10
  C 338.09 194.44 340.53 202.05 339.97 209.36
  Q 339.77 211.93 340.35 214.72
  A 0.97 0.96 -87.5 0 1 339.13 215.84
  Q 329.78 213.03 318.88 209.41
  Q 316.61 208.65 315.33 206.67
  A 1.84 1.83 -62.6 0 1 315.04 205.75
  Q 314.90 202.84 317.38 200.85
  C 321.59 197.47 325.46 194.97 329.32 191.38
  Q 331.61 189.25 333.64 187.85
  Z"
/>
<circle fill="#0d334e" cx="289.40" cy="211.82" r="9.62"/>
<path fill="#0d334e" d="
  M 270.26 227.55
  C 272.17 229.91 269.95 235.22 268.85 237.79
  Q 264.96 246.85 261.36 254.31
  A 1.29 1.29 0.0 0 1 259.47 254.82
  Q 253.86 250.96 248.89 244.81
  Q 243.93 238.67 241.33 232.37
  A 1.29 1.29 0.0 0 1 242.22 230.63
  Q 250.27 228.67 259.94 226.77
  C 262.69 226.23 268.35 225.18 270.26 227.55
  Z"
/>
<path fill="#05090a" d="
  M 329.69 244.35
  C 326.82 247.90 323.09 251.90 318.85 254.39
  A 0.98 0.98 0.0 0 1 317.47 253.98
  Q 312.39 243.49 308.38 232.72
  Q 307.15 229.42 308.75 227.44
  Q 310.35 225.47 313.82 225.97
  Q 325.20 227.62 336.53 230.37
  A 0.98 0.98 0.0 0 1 337.22 231.63
  C 335.68 236.31 332.56 240.79 329.69 244.35
  Z
  M 309.05 230.96
  L 317.53 252.23
  A 1.37 1.36 -30.3 0 0 319.65 252.78
  Q 330.03 244.47 336.08 232.32
  A 0.75 0.75 0.0 0 0 335.64 231.27
  Q 334.12 230.77 333.53 230.70
  Q 328.83 230.13 324.18 228.89
  Q 320.03 227.77 316.06 228.10
  A 2.28 2.19 -36.4 0 1 315.06 227.97
  Q 314.03 227.59 312.56 227.48
  Q 309.94 227.28 309.07 229.29
  A 2.16 2.16 0.0 0 0 309.05 230.96
  Z"
/>
<path fill="#0d334e" d="
  M 309.07 229.29
  Q 309.94 227.28 312.56 227.48
  Q 314.03 227.59 315.06 227.97
  A 2.28 2.19 -36.4 0 0 316.06 228.10
  Q 320.03 227.77 324.18 228.89
  Q 328.83 230.13 333.53 230.70
  Q 334.12 230.77 335.64 231.27
  A 0.75 0.75 0.0 0 1 336.08 232.32
  Q 330.03 244.47 319.65 252.78
  A 1.37 1.36 -30.3 0 1 317.53 252.23
  L 309.05 230.96
  A 2.16 2.16 0.0 0 1 309.07 229.29
  Z"
/>
<path fill="#0d334e" d="
  M 274.51 259.48
  Q 279.77 248.70 283.60 241.63
  C 284.93 239.18 287.77 235.83 290.65 237.20
  Q 292.60 238.14 294.76 241.46
  Q 300.49 250.24 303.99 259.06
  A 1.99 1.99 0.0 0 1 302.66 261.72
  Q 289.01 265.39 275.66 261.96
  A 1.77 1.77 0.0 0 1 274.51 259.48
  Z"
/>
<path fill="#042034" d="
  M 240.38 323.03
  A 1.35 1.34 -85.8 0 1 241.71 321.88
  Q 307.64 322.02 334.28 321.85
  Q 345.77 321.78 354.18 313.86
  Q 355.68 312.45 364.10 298.57
  Q 370.70 287.67 380.17 272.93
  Q 382.39 269.47 399.49 242.01
  Q 400.48 240.43 401.29 238.41
  A 1.82 1.82 0.0 0 1 402.68 237.29
  Q 405.42 236.84 409.42 236.84
  Q 770.23 236.76 775.50 236.79
  Q 779.95 236.82 781.47 236.86
  Q 783.81 236.92 783.81 239.51
  Q 783.81 251.54 783.85 558.42
  Q 783.85 563.12 783.56 566.54
  C 782.29 581.28 772.28 590.90 758.08 593.57
  Q 755.46 594.06 747.25 594.06
  Q 324.33 594.03 273.25 594.06
  C 262.04 594.06 250.38 589.35 244.41 579.71
  Q 240.14 572.81 240.12 563.45
  C 240.07 524.95 240.24 494.97 240.18 462.00
  Q 240.03 388.54 240.20 326.29
  Q 240.21 324.17 240.38 323.03
  Z
  M 437.62 413.72
  Q 436.86 412.94 436.26 413.55
  Q 412.10 437.65 379.91 469.91
  Q 377.06 472.77 376.35 479.43
  A 3.45 3.43 -51.0 0 0 376.49 480.80
  C 377.88 485.36 379.52 489.70 383.34 492.17
  Q 391.28 497.30 398.94 494.60
  Q 402.47 493.35 409.42 486.43
  Q 422.81 473.10 438.73 457.52
  C 440.43 455.86 441.89 453.89 443.69 452.27
  Q 445.64 450.52 447.57 448.50
  C 456.13 439.49 459.63 435.57 467.16 428.14
  Q 471.81 423.54 476.80 417.49
  A 5.18 4.47 82.4 0 0 477.39 416.59
  Q 483.48 404.54 472.66 398.79
  Q 438.95 365.57 405.33 331.67
  C 400.68 326.97 397.03 323.30 389.93 324.46
  C 379.27 326.20 373.63 338.16 379.41 347.25
  A 0.91 0.74 12.4 0 0 379.53 347.40
  L 440.90 409.04
  A 0.88 0.88 0.0 0 1 441.01 410.15
  Q 439.69 412.13 437.62 413.72
  Z
  M 629.91 484.18
  A 12.67 12.67 0.0 0 0 617.24 471.51
  L 511.78 471.51
  A 12.67 12.67 0.0 0 0 499.11 484.18
  L 499.11 489.96
  A 12.67 12.67 0.0 0 0 511.78 502.63
  L 617.24 502.63
  A 12.67 12.67 0.0 0 0 629.91 489.96
  L 629.91 484.18
  Z"
/>
<path fill="#f7f6f3" d="
  M 472.66 398.79
  Q 476.68 402.92 477.30 404.76
  Q 480.04 412.97 474.10 418.96
  Q 444.27 449.06 404.31 489.41
  Q 396.63 497.17 386.78 492.89
  C 379.84 489.87 376.35 481.83 378.52 474.77
  Q 379.34 472.11 384.49 466.96
  Q 411.11 440.39 437.62 413.72
  Q 439.69 412.13 441.01 410.15
  A 0.88 0.88 0.0 0 0 440.90 409.04
  L 379.53 347.40
  A 0.91 0.74 12.4 0 1 379.41 347.25
  C 373.63 338.16 379.27 326.20 389.93 324.46
  C 397.03 323.30 400.68 326.97 405.33 331.67
  Q 438.95 365.57 472.66 398.79
  Z"
/>
<path fill="#05090a" d="
  M 437.62 413.72
  Q 411.11 440.39 384.49 466.96
  Q 379.34 472.11 378.52 474.77
  C 376.35 481.83 379.84 489.87 386.78 492.89
  Q 396.63 497.17 404.31 489.41
  Q 444.27 449.06 474.10 418.96
  Q 480.04 412.97 477.30 404.76
  Q 476.68 402.92 472.66 398.79
  Q 483.48 404.54 477.39 416.59
  A 5.18 4.47 82.4 0 1 476.80 417.49
  Q 471.81 423.54 467.16 428.14
  C 459.63 435.57 456.13 439.49 447.57 448.50
  Q 445.64 450.52 443.69 452.27
  C 441.89 453.89 440.43 455.86 438.73 457.52
  Q 422.81 473.10 409.42 486.43
  Q 402.47 493.35 398.94 494.60
  Q 391.28 497.30 383.34 492.17
  C 379.52 489.70 377.88 485.36 376.49 480.80
  A 3.45 3.43 -51.0 0 1 376.35 479.43
  Q 377.06 472.77 379.91 469.91
  Q 412.10 437.65 436.26 413.55
  Q 436.86 412.94 437.62 413.72
  Z"
/>
<path fill="#05090a" d="
  M 629.91 489.96
  A 12.67 12.67 0.0 0 1 617.24 502.63
  L 511.78 502.63
  A 12.67 12.67 0.0 0 1 499.11 489.96
  L 499.11 484.18
  A 12.67 12.67 0.0 0 1 511.78 471.51
  L 617.24 471.51
  A 12.67 12.67 0.0 0 1 629.91 484.18
  L 629.91 489.96
  Z
  M 628.82 484.54
  A 11.90 11.90 0.0 0 0 616.92 472.64
  L 511.92 472.64
  A 11.90 11.90 0.0 0 0 500.02 484.54
  L 500.02 489.78
  A 11.90 11.90 0.0 0 0 511.92 501.68
  L 616.92 501.68
  A 11.90 11.90 0.0 0 0 628.82 489.78
  L 628.82 484.54
  Z"
/>
<rect fill="#f7f6f3" x="500.02" y="472.64" width="128.80" height="29.04" rx="11.90"/>
<path fill="#05090a" d="
  M 360.21 836.54
  L 360.21 848.88
  A 1.12 1.12 0.0 0 1 359.09 850.00
  L 333.95 850.00
  A 0.84 0.84 0.0 0 1 333.11 849.16
  L 333.11 702.77
  A 1.28 1.28 0.0 0 1 334.39 701.49
  L 359.28 701.49
  A 1.17 1.16 -90.0 0 1 360.44 702.66
  L 360.44 757.30
  A 0.32 0.31 61.9 0 0 361.02 757.48
  Q 368.87 745.41 382.77 741.80
  Q 387.54 740.56 395.44 740.61
  C 434.20 740.85 443.95 781.02 438.88 811.84
  C 433.98 841.64 409.49 858.91 379.77 851.20
  Q 367.05 847.90 360.53 836.46
  A 0.17 0.17 0.0 0 0 360.21 836.54
  Z
  M 360.34 796.25
  Q 360.11 802.94 361.16 809.49
  C 362.85 820.08 369.72 830.07 380.72 832.01
  Q 394.37 834.42 402.92 825.70
  C 410.20 818.29 411.84 807.95 412.18 797.99
  C 412.51 788.04 411.57 777.62 404.80 769.72
  Q 396.86 760.45 383.08 761.94
  C 371.97 763.14 364.45 772.64 362.04 783.10
  Q 360.56 789.56 360.34 796.25
  Z"
/>
<path fill="#05090a" d="
  M 742.43 850.77
  L 716.78 850.77
  A 1.02 1.02 0.0 0 1 715.76 849.75
  L 715.76 728.01
  A 1.02 1.02 0.0 0 0 714.74 726.99
  L 674.00 726.99
  A 1.02 1.02 0.0 0 1 672.98 725.97
  L 672.98 703.06
  A 1.02 1.02 0.0 0 1 674.00 702.04
  L 783.98 702.04
  A 1.02 1.02 0.0 0 1 785.00 703.06
  L 785.00 725.96
  A 1.02 1.02 0.0 0 1 783.98 726.98
  L 744.47 726.98
  A 1.02 1.02 0.0 0 0 743.45 728.00
  L 743.45 849.75
  A 1.02 1.02 0.0 0 1 742.43 850.77
  Z"
/>
<path fill="#05090a" d="
  M 862.03 768.74
  A 0.41 0.41 0.0 0 0 862.75 768.74
  L 898.44 703.59
  A 2.74 2.74 0.0 0 1 900.84 702.17
  L 927.54 702.17
  A 0.93 0.93 0.0 0 1 928.35 703.57
  L 875.83 793.28
  A 4.86 4.85 -29.9 0 0 875.16 795.74
  L 875.16 849.05
  A 1.03 1.02 90.0 0 1 874.14 850.08
  L 847.85 850.08
  A 0.88 0.88 0.0 0 1 846.97 849.20
  L 846.97 796.21
  A 6.82 6.74 -60.8 0 0 846.00 792.71
  C 834.09 773.07 822.34 752.39 810.80 733.27
  C 802.17 718.96 796.48 710.33 793.65 703.73
  A 1.18 1.17 -12.3 0 1 794.71 702.09
  Q 806.81 701.82 821.78 701.97
  Q 824.47 702.00 825.74 704.28
  Q 845.84 740.27 862.03 768.74
  Z"
/>
<path fill="#05090a" d="
  M 124.44 767.52
  A 0.30 0.30 0.0 0 0 124.96 767.72
  Q 155.64 732.12 177.93 705.42
  C 179.66 703.34 180.84 702.89 183.63 702.91
  Q 203.76 703.02 207.39 703.10
  Q 207.56 703.10 208.28 703.32
  A 0.89 0.89 0.0 0 1 208.71 704.74
  L 159.53 764.40
  A 2.15 2.15 0.0 0 0 159.39 766.94
  L 212.99 849.25
  A 1.13 1.13 0.0 0 1 212.05 851.00
  Q 199.71 851.15 183.52 851.07
  Q 180.58 851.06 179.08 848.72
  Q 158.44 816.43 139.19 786.59
  A 0.25 0.25 0.0 0 0 138.80 786.55
  L 125.79 799.55
  A 3.77 3.75 67.6 0 0 124.69 802.21
  L 124.69 849.77
  A 1.22 1.22 0.0 0 1 123.47 850.99
  L 97.58 850.99
  A 1.62 1.62 0.0 0 1 95.96 849.37
  L 95.96 703.57
  A 1.23 1.23 0.0 0 1 97.19 702.34
  L 123.43 702.34
  A 1.01 1.01 0.0 0 1 124.44 703.35
  L 124.44 767.52
  Z"
/>
<path fill="#05090a" d="
  M 607.44 702.29
  Q 661.20 702.27 662.06 702.27
  A 1.06 1.05 -0.7 0 1 663.14 703.32
  L 663.13 725.65
  A 1.34 1.33 90.0 0 1 661.80 726.99
  L 622.05 726.99
  A 0.47 0.47 0.0 0 0 621.58 727.46
  L 621.58 849.38
  A 1.35 1.34 -0.7 0 1 620.26 850.72
  Q 618.27 850.77 607.51 850.77
  Q 596.76 850.78 594.76 850.74
  A 1.35 1.34 0.7 0 1 593.44 849.39
  L 593.33 727.47
  A 0.47 0.47 0.0 0 0 592.85 727.00
  L 553.10 727.04
  A 1.34 1.33 89.9 0 1 551.77 725.70
  L 551.74 703.37
  A 1.06 1.05 0.7 0 1 552.82 702.32
  Q 553.68 702.32 607.44 702.29
  Z"
/>
<path fill="#05090a" d="
  M 480.60 804.84
  Q 480.56 810.36 481.67 814.34
  Q 486.29 830.96 504.02 832.03
  C 512.21 832.53 520.86 830.76 527.21 825.21
  Q 528.22 824.33 532.11 820.46
  A 0.91 0.91 0.0 0 1 533.27 820.36
  L 549.25 831.50
  A 0.67 0.67 0.0 0 1 549.40 832.46
  C 541.91 842.09 533.03 848.72 521.05 851.36
  C 491.15 857.95 459.47 845.13 453.60 812.98
  Q 451.17 799.72 453.37 784.33
  C 456.33 763.64 470.22 746.08 491.06 741.60
  Q 496.82 740.37 507.21 740.69
  C 524.91 741.24 539.08 750.04 546.33 766.67
  C 551.26 777.98 552.10 790.77 551.56 803.08
  A 1.05 1.04 1.1 0 1 550.51 804.08
  L 481.36 804.08
  A 0.76 0.76 0.0 0 0 480.60 804.84
  Z
  M 481.77 785.94
  L 524.65 785.86
  A 0.52 0.52 0.0 0 0 525.17 785.34
  L 525.17 782.13
  A 22.25 20.57 89.9 0 0 504.56 759.92
  L 501.78 759.92
  A 22.25 20.57 89.9 0 0 481.25 782.21
  L 481.25 785.42
  A 0.52 0.52 0.0 0 0 481.77 785.94
  Z"
/>
<path fill="#05090a" d="
  M 287.02 836.43
  A 0.21 0.21 0.0 0 0 286.63 836.33
  C 276.76 853.78 255.68 856.10 238.20 850.56
  C 227.06 847.03 220.63 836.74 218.74 825.75
  Q 217.86 820.65 217.84 814.25
  Q 217.79 796.95 217.73 745.26
  A 1.26 1.26 0.0 0 1 218.99 744.00
  L 243.72 744.00
  A 1.18 1.18 0.0 0 1 244.90 745.18
  Q 244.85 788.55 244.93 810.25
  C 244.95 814.05 245.33 817.97 246.90 821.19
  Q 251.00 829.60 260.28 830.91
  C 269.69 832.23 278.03 830.24 282.90 821.66
  Q 286.94 814.54 286.98 804.74
  Q 287.01 797.00 286.99 747.75
  Q 286.98 745.48 287.20 743.88
  A 0.95 0.95 0.0 0 1 288.14 743.06
  L 312.48 743.06
  A 1.52 1.52 0.0 0 1 314.00 744.58
  L 314.00 849.50
  A 1.45 1.45 0.0 0 1 312.55 850.95
  L 288.80 850.95
  A 1.78 1.78 0.0 0 1 287.02 849.17
  L 287.02 836.43
  Z"
/>
<path fill="#f7f6f3" d="
  M 481.77 785.94
  A 0.52 0.52 0.0 0 1 481.25 785.42
  L 481.25 782.21
  A 22.25 20.57 89.9 0 1 501.78 759.92
  L 504.56 759.92
  A 22.25 20.57 89.9 0 1 525.17 782.13
  L 525.17 785.34
  A 0.52 0.52 0.0 0 1 524.65 785.86
  L 481.77 785.94
  Z"
/>
<path fill="#f7f6f3" d="
  M 412.18 797.99
  C 411.84 807.95 410.20 818.29 402.92 825.70
  Q 394.37 834.42 380.72 832.01
  C 369.72 830.07 362.85 820.08 361.16 809.49
  Q 360.11 802.94 360.34 796.25
  Q 360.56 789.56 362.04 783.10
  C 364.45 772.64 371.97 763.14 383.08 761.94
  Q 396.86 760.45 404.80 769.72
  C 411.57 777.62 412.51 788.04 412.18 797.99
  Z"
/>
</svg>
